<svg width="25" height="24" viewBox="0 0 25 24" fill="none" xmlns="http://www.w3.org/2000/svg">
<path d="M9.90033 5.46667H8.03366C7.00273 5.46667 6.16699 6.30241 6.16699 7.33334V18.5333C6.16699 19.5643 7.00273 20.4 8.03366 20.4H17.367C18.3979 20.4 19.2337 19.5643 19.2337 18.5333V7.33334C19.2337 6.30241 18.3979 5.46667 17.367 5.46667H15.5003M9.90033 5.46667C9.90033 6.4976 10.7361 7.33334 11.767 7.33334H13.6337C14.6646 7.33334 15.5003 6.4976 15.5003 5.46667M9.90033 5.46667C9.90033 4.43574 10.7361 3.60001 11.767 3.60001H13.6337C14.6646 3.60001 15.5003 4.43574 15.5003 5.46667" stroke="#4A7790" stroke-width="1.67" stroke-linecap="round"/>
</svg>
